<svg width="24" height="25" viewBox="0 0 24 25" fill="none" xmlns="http://www.w3.org/2000/svg">
<g id="Linear / Messages, Conversation / Pen 2">
<path id="Vector" d="M4 22.5H20" stroke="#061B23" stroke-width="1.5" stroke-linecap="round"/>
<path id="Vector_2" d="M13.8881 4.16293L14.6296 3.42142C15.8581 2.19286 17.85 2.19286 19.0786 3.42142C20.3071 4.64999 20.3071 6.64188 19.0786 7.87044L18.3371 8.61195M13.8881 4.16293C13.8881 4.16293 13.9807 5.73862 15.3711 7.12894C16.7614 8.51926 18.3371 8.61195 18.3371 8.61195M13.8881 4.16293L7.07106 10.9799C6.60933 11.4416 6.37846 11.6725 6.17992 11.9271C5.94571 12.2273 5.74491 12.5522 5.58107 12.896C5.44219 13.1874 5.33894 13.4972 5.13245 14.1167L4.25745 16.7417M18.3371 8.61195L11.5201 15.4289C11.0584 15.8907 10.8275 16.1215 10.5729 16.3201C10.2727 16.5543 9.94775 16.7551 9.60398 16.9189C9.31256 17.0578 9.00282 17.1611 8.38334 17.3675L5.75834 18.2426M5.75834 18.2426L5.11667 18.4564C4.81182 18.5581 4.47573 18.4787 4.2485 18.2515C4.02128 18.0243 3.94194 17.6882 4.04356 17.3833L4.25745 16.7417M5.75834 18.2426L4.25745 16.7417" stroke="#061B23" stroke-width="1.5"/>
</g>
</svg>
