<svg width="684" height="684" viewBox="0 0 684 684" fill="none" xmlns="http://www.w3.org/2000/svg">
<rect width="684" height="684" rx="342" fill="#061B23"/>
<path d="M461.981 513.12C467.599 511.882 473.157 515.433 474.395 521.051C475.633 526.67 472.081 532.227 466.463 533.465L461.981 513.12ZM361.493 453.204C378.382 476.093 390.81 493.541 405.711 504.334C419.54 514.352 435.975 518.849 461.981 513.12L466.463 533.465C435.4 540.308 412.725 535.14 393.489 521.206C375.324 508.048 360.731 487.259 344.729 465.573L361.493 453.204Z" fill="#B4AAAA"/>
<path d="M175.333 317.722C175.333 248.686 231.298 192.722 300.333 192.722H383.667C452.702 192.722 508.667 248.686 508.667 317.722V374.666C508.667 409.184 480.685 437.166 446.167 437.166H237.833C203.316 437.166 175.333 409.184 175.333 374.666V317.722Z" fill="white"/>
<path d="M364.222 370.5C364.222 376.636 354.273 381.611 342 381.611C329.727 381.611 319.778 376.636 319.778 370.5C319.778 364.363 329.727 359.389 342 359.389C354.273 359.389 364.222 364.363 364.222 370.5Z" fill="#061B23"/>
<path d="M187.659 170.505C169.375 236.997 174.596 266.994 183.107 303.838L303.741 210.909C263.608 192.838 244.624 175.992 187.659 170.505Z" fill="white" stroke="white" stroke-width="20.8333"/>
<path d="M206.088 192.725C193.431 237.052 197.045 257.049 202.937 281.611L286.445 219.66C258.663 207.614 245.522 196.383 206.088 192.725Z" fill="#B5C7CF" stroke="white" stroke-width="20.8333"/>
<path d="M491.415 170.505C509.699 236.997 504.478 266.994 495.967 303.838L375.333 210.909C415.466 192.838 434.45 175.992 491.415 170.505Z" fill="white" stroke="white" stroke-width="20.8333"/>
<path d="M477.912 192.725C490.569 237.052 486.955 257.049 481.063 281.611L397.555 219.66C425.337 207.614 438.479 196.383 477.912 192.725Z" fill="#B5C7CF" stroke="white" stroke-width="20.8333"/>
<rect x="286.445" y="437.166" width="111.111" height="88.8889" fill="white"/>
<path d="M375.333 526.055H397.556V537.166C397.556 543.303 392.581 548.277 386.445 548.277C380.308 548.277 375.333 543.303 375.333 537.166V526.055Z" fill="white"/>
<path d="M375.333 526.055H397.556V537.166C397.556 543.303 392.581 548.277 386.445 548.277C380.308 548.277 375.333 543.303 375.333 537.166V526.055Z" fill="white"/>
<path d="M286.445 526.055H308.667V537.166C308.667 543.303 303.692 548.277 297.556 548.277C291.419 548.277 286.445 543.303 286.445 537.166V526.055Z" fill="white"/>
<path d="M286.445 526.055H308.667V537.166C308.667 543.303 303.692 548.277 297.556 548.277C291.419 548.277 286.445 543.303 286.445 537.166V526.055Z" fill="white"/>
<path d="M295.919 414.945L311.632 430.658L257.116 485.174C252.777 489.513 245.742 489.513 241.403 485.174C237.064 480.835 237.064 473.8 241.403 469.46L295.919 414.945Z" fill="white"/>
<path d="M295.919 414.945L311.632 430.658L257.116 485.174C252.777 489.513 245.742 489.513 241.403 485.174C237.064 480.835 237.064 473.8 241.403 469.46L295.919 414.945Z" fill="white"/>
<path d="M391.046 414.945L375.333 430.658L429.849 485.174C434.188 489.513 441.223 489.513 445.562 485.174C449.901 480.835 449.901 473.8 445.562 469.46L391.046 414.945Z" fill="white"/>
<path d="M391.046 414.945L375.333 430.658L429.849 485.174C434.188 489.513 441.223 489.513 445.562 485.174C449.901 480.835 449.901 473.8 445.562 469.46L391.046 414.945Z" fill="white"/>
<circle cx="275.333" cy="314.944" r="52.4306" fill="black" stroke="black" stroke-width="6.25"/>
<circle cx="408.667" cy="314.944" r="52.4306" fill="black" stroke="black" stroke-width="6.25"/>
<circle cx="275.333" cy="314.945" r="11.1111" fill="black"/>
<circle cx="408.667" cy="314.945" r="11.1111" fill="black"/>
</svg>
