<svg width="24" height="25" viewBox="0 0 24 25" fill="none" xmlns="http://www.w3.org/2000/svg">
<g id="Linear / Settings, Fine Tuning / Settings">
<circle id="Vector" cx="12" cy="12.5" r="3" stroke="#061B23" stroke-width="1.5"/>
<path id="Vector_2" d="M13.7654 2.65224C13.3978 2.5 12.9319 2.5 12 2.5C11.0681 2.5 10.6022 2.5 10.2346 2.65224C9.74458 2.85523 9.35523 3.24458 9.15224 3.73463C9.05958 3.95834 9.02332 4.2185 9.00913 4.59799C8.98827 5.15568 8.70227 5.67189 8.21896 5.95093C7.73565 6.22996 7.1456 6.21954 6.65221 5.95876C6.31646 5.7813 6.07302 5.68262 5.83295 5.65102C5.30706 5.58178 4.7752 5.72429 4.35438 6.0472C4.03876 6.28938 3.80579 6.6929 3.33985 7.49993C2.87391 8.30697 2.64094 8.71048 2.58901 9.10491C2.51977 9.6308 2.66228 10.1627 2.98519 10.5835C3.13258 10.7756 3.33972 10.937 3.6612 11.139C4.13381 11.436 4.43791 11.9419 4.43787 12.5C4.43784 13.0581 4.13376 13.5639 3.6612 13.8608C3.33966 14.0629 3.13249 14.2244 2.98509 14.4165C2.66219 14.8373 2.51968 15.3691 2.58891 15.895C2.64084 16.2894 2.87381 16.693 3.33975 17.5C3.80569 18.307 4.03866 18.7106 4.35428 18.9527C4.7751 19.2756 5.30696 19.4181 5.83285 19.3489C6.07291 19.3173 6.31634 19.2186 6.65205 19.0412C7.14549 18.7804 7.73557 18.77 8.21891 19.049C8.70225 19.3281 8.98827 19.8443 9.00913 20.4021C9.02332 20.7815 9.05959 21.0417 9.15224 21.2654C9.35523 21.7554 9.74458 22.1448 10.2346 22.3478C10.6022 22.5 11.0681 22.5 12 22.5C12.9319 22.5 13.3978 22.5 13.7654 22.3478C14.2554 22.1448 14.6448 21.7554 14.8478 21.2654C14.9404 21.0417 14.9767 20.7815 14.9909 20.402C15.0117 19.8443 15.2977 19.3281 15.781 19.049C16.2643 18.7699 16.8544 18.7804 17.3479 19.0412C17.6836 19.2186 17.927 19.3172 18.1671 19.3488C18.693 19.4181 19.2248 19.2756 19.6456 18.9527C19.9612 18.7105 20.1942 18.307 20.6602 17.4999C21.1261 16.6929 21.3591 16.2894 21.411 15.895C21.4802 15.3691 21.3377 14.8372 21.0148 14.4164C20.8674 14.2243 20.6603 14.0628 20.3387 13.8608C19.8662 13.5639 19.5621 13.058 19.5621 12.4999C19.5622 11.9418 19.8662 11.4361 20.3388 11.1392C20.6603 10.9371 20.8675 10.7757 21.0149 10.5835C21.3378 10.1627 21.4803 9.63087 21.4111 9.10497C21.3592 8.71055 21.1262 8.30703 20.6603 7.5C20.1943 6.69297 19.9613 6.28945 19.6457 6.04727C19.2249 5.72436 18.693 5.58185 18.1672 5.65109C17.9271 5.68269 17.6837 5.78136 17.348 5.9588C16.8545 6.21959 16.2644 6.23002 15.7811 5.95096C15.2978 5.67191 15.0117 5.15566 14.9909 4.59794C14.9767 4.21848 14.9404 3.95833 14.8478 3.73463C14.6448 3.24458 14.2554 2.85523 13.7654 2.65224Z" stroke="#061B23" stroke-width="1.5"/>
</g>
</svg>
